<?xml version="1.0" encoding="UTF-8"?>
<svg width="1600" height="900" viewBox="0 0 1600 900" fill="none" xmlns="http://www.w3.org/2000/svg" role="img" aria-labelledby="title desc">
  <title id="title">Abstract illustration of AI guardrails</title>
  <desc id="desc">A modern, accessible-friendly tech illustration with a central rounded square chip icon, surrounding nodes, and subtle gradient waves suggesting responsible artificial intelligence and safety.</desc>

  <defs>
    <linearGradient id="bg" x1="0" y1="0" x2="1600" y2="900" gradientUnits="userSpaceOnUse">
      <stop offset="0" stop-color="#071A2B"/>
      <stop offset="0.55" stop-color="#0B2A3F"/>
      <stop offset="1" stop-color="#0F3B4A"/>
    </linearGradient>

    <linearGradient id="accent" x1="320" y1="180" x2="1280" y2="720" gradientUnits="userSpaceOnUse">
      <stop offset="0" stop-color="#22D3EE"/>
      <stop offset="0.45" stop-color="#A78BFA"/>
      <stop offset="1" stop-color="#34D399"/>
    </linearGradient>

    <filter id="softGlow" x="-50%" y="-50%" width="200%" height="200%">
      <feGaussianBlur stdDeviation="18" result="blur"/>
      <feColorMatrix in="blur" type="matrix" values="1 0 0 0 0  0 1 0 0 0  0 0 1 0 0  0 0 0 0.35 0" result="glow"/>
      <feMerge>
        <feMergeNode in="glow"/>
        <feMergeNode in="SourceGraphic"/>
      </feMerge>
    </filter>

    <pattern id="grid" width="64" height="64" patternUnits="userSpaceOnUse">
      <path d="M 64 0 L 0 0 0 64" fill="none" stroke="#93C5FD" stroke-opacity="0.10" stroke-width="1"/>
    </pattern>
  </defs>

  <rect width="1600" height="900" fill="url(#bg)"/>
  <rect width="1600" height="900" fill="url(#grid)"/>

  <!-- soft waves -->
  <path d="M-40 650 C 220 540, 420 780, 720 680 C 980 595, 1180 500, 1640 610" stroke="#22D3EE" stroke-opacity="0.20" stroke-width="10" fill="none"/>
  <path d="M-60 720 C 240 640, 480 860, 780 760 C 1020 680, 1220 585, 1660 700" stroke="#A78BFA" stroke-opacity="0.16" stroke-width="10" fill="none"/>

  <!-- glow behind chip -->
  <circle cx="800" cy="405" r="210" fill="url(#accent)" opacity="0.22" filter="url(#softGlow)"/>

  <!-- central chip -->
  <rect x="650" y="255" width="300" height="300" rx="44" fill="#0B1220" stroke="url(#accent)" stroke-width="6"/>
  <path d="M 740 420 c 0 -55 45 -100 100 -100 s 100 45 100 100 -45 100 -100 100 -100 -45 -100 -100 Z" fill="none" stroke="#E5E7EB" stroke-width="10" opacity="0.9"/>
  <path d="M 780 420 h 120" stroke="#E5E7EB" stroke-width="10" stroke-linecap="round" opacity="0.9"/>
  <path d="M 840 360 v 120" stroke="#E5E7EB" stroke-width="10" stroke-linecap="round" opacity="0.9"/>

  <!-- chip pins -->
  <g opacity="0.75">
    <rect x="635" y="310" width="18" height="40" rx="9" fill="#22D3EE"/>
    <rect x="635" y="380" width="18" height="40" rx="9" fill="#22D3EE"/>
    <rect x="635" y="450" width="18" height="40" rx="9" fill="#22D3EE"/>

    <rect x="947" y="310" width="18" height="40" rx="9" fill="#34D399"/>
    <rect x="947" y="380" width="18" height="40" rx="9" fill="#34D399"/>
    <rect x="947" y="450" width="18" height="40" rx="9" fill="#34D399"/>

    <rect x="710" y="240" width="40" height="18" rx="9" fill="#A78BFA"/>
    <rect x="780" y="240" width="40" height="18" rx="9" fill="#A78BFA"/>
    <rect x="850" y="240" width="40" height="18" rx="9" fill="#A78BFA"/>

    <rect x="710" y="542" width="40" height="18" rx="9" fill="#93C5FD"/>
    <rect x="780" y="542" width="40" height="18" rx="9" fill="#93C5FD"/>
    <rect x="850" y="542" width="40" height="18" rx="9" fill="#93C5FD"/>
  </g>

  <!-- network nodes -->
  <g stroke="#E5E7EB" stroke-opacity="0.28" stroke-width="4">
    <path d="M800 255 L800 150"/>
    <path d="M650 405 L510 405"/>
    <path d="M950 405 L1090 405"/>
    <path d="M800 555 L800 690"/>
    <path d="M690 300 L560 210"/>
    <path d="M910 300 L1040 210"/>
    <path d="M690 510 L560 610"/>
    <path d="M910 510 L1040 610"/>
  </g>

  <g filter="url(#softGlow)">
    <circle cx="800" cy="140" r="16" fill="#22D3EE"/>
    <circle cx="500" cy="405" r="16" fill="#A78BFA"/>
    <circle cx="1100" cy="405" r="16" fill="#34D399"/>
    <circle cx="800" cy="710" r="16" fill="#93C5FD"/>

    <circle cx="550" cy="205" r="12" fill="#22D3EE" opacity="0.95"/>
    <circle cx="1050" cy="205" r="12" fill="#A78BFA" opacity="0.95"/>
    <circle cx="550" cy="620" r="12" fill="#34D399" opacity="0.95"/>
    <circle cx="1050" cy="620" r="12" fill="#93C5FD" opacity="0.95"/>
  </g>

  <!-- title text (kept subtle for reuse) -->
  <g opacity="0.22">
    <text x="95" y="170" font-family="ui-sans-serif, system-ui, -apple-system, Segoe UI, Roboto" font-size="56" fill="#E5E7EB">AI</text>
    <text x="95" y="230" font-family="ui-sans-serif, system-ui, -apple-system, Segoe UI, Roboto" font-size="32" fill="#E5E7EB">guardrails &amp; qualidade</text>
  </g>
</svg>
