<?xml version="1.0" encoding="UTF-8"?>
<svg width="40" height="40" viewBox="0 0 40 40" fill="none" xmlns="http://www.w3.org/2000/svg" role="img" aria-labelledby="title desc">
  <title id="title">Inclusive Web Blog mark (compact)</title>
  <desc id="desc">Compact icon: a globe with latitude and longitude next to a simplified accessibility person symbol.</desc>
  <!-- Globe -->
  <circle cx="16" cy="20" r="9" stroke="#0EA5E9" stroke-width="1.8" fill="none" />
  <path d="M7 20h18" stroke="#0EA5E9" stroke-width="1.4" stroke-linecap="round" />
  <path d="M16 11v18" stroke="#0EA5E9" stroke-width="1.2" stroke-linecap="round" />
  <path d="M10 14c2.2 3.5 2.2 8 0 12" stroke="#0EA5E9" stroke-width="1" fill="none" />
  <path d="M22 14c-2.2 3.5-2.2 8 0 12" stroke="#0EA5E9" stroke-width="1" fill="none" />
  <!-- Accessibility person (compact) -->
  <circle cx="28" cy="13" r="2.8" fill="#10B981" />
  <path d="M28 16.5c4.2 0 6.8 0.9 6.8 2.4 0 1.1-1.8 1.9-4.4 2.2v7.4c0 1.4-0.9 2.3-2.4 2.3s-2.4-0.9-2.4-2.3v-7.4c-2.6-0.3-4.4-1.1-4.4-2.2 0-1.5 2.6-2.4 6.8-2.4z" fill="#10B981" />
</svg>
